<svg width="356" height="77" viewBox="0 0 356 77" fill="none" xmlns="http://www.w3.org/2000/svg">
<path d="M29.4375 15.0781L15.5703 60H0.84375L21.7422 3.125H31.0781L29.4375 15.0781ZM40.9219 60L27.0156 15.0781L25.2188 3.125H34.6719L55.6875 60H40.9219ZM40.375 38.7891V49.375H11.1953V38.7891H40.375ZM70.6484 26.6797V60H57.4844V17.7344H69.8281L70.6484 26.6797ZM69.0469 37.4219L66.0391 37.5C66.0391 34.5312 66.3906 31.7969 67.0938 29.2969C67.7969 26.7969 68.8385 24.6224 70.2188 22.7734C71.599 20.9245 73.2917 19.4922 75.2969 18.4766C77.3281 17.4609 79.6719 16.9531 82.3281 16.9531C84.1771 16.9531 85.8568 17.2396 87.3672 17.8125C88.8776 18.3594 90.1797 19.2318 91.2734 20.4297C92.3672 21.6016 93.2005 23.138 93.7734 25.0391C94.3724 26.9141 94.6719 29.1667 94.6719 31.7969V60H81.5078V33.4766C81.5078 31.6797 81.2995 30.3255 80.8828 29.4141C80.4922 28.5026 79.9193 27.8906 79.1641 27.5781C78.4089 27.2656 77.4844 27.1094 76.3906 27.1094C75.2448 27.1094 74.2161 27.3698 73.3047 27.8906C72.3932 28.4115 71.612 29.1406 70.9609 30.0781C70.3359 30.9896 69.8542 32.0703 69.5156 33.3203C69.2031 34.5703 69.0469 35.9375 69.0469 37.4219ZM93.1875 37.4219L89.5156 37.5C89.5156 34.5312 89.8411 31.7969 90.4922 29.2969C91.1693 26.7969 92.1719 24.6224 93.5 22.7734C94.8542 20.9245 96.5339 19.4922 98.5391 18.4766C100.544 17.4609 102.875 16.9531 105.531 16.9531C107.458 16.9531 109.229 17.2396 110.844 17.8125C112.458 18.3854 113.852 19.3099 115.023 20.5859C116.195 21.862 117.107 23.5547 117.758 25.6641C118.409 27.7474 118.734 30.3255 118.734 33.3984V60H105.531V33.3984C105.531 31.6536 105.323 30.3385 104.906 29.4531C104.516 28.5417 103.943 27.9297 103.188 27.6172C102.432 27.2786 101.534 27.1094 100.492 27.1094C99.2422 27.1094 98.1615 27.3698 97.25 27.8906C96.3385 28.4115 95.5703 29.1406 94.9453 30.0781C94.3464 30.9896 93.9036 32.0703 93.6172 33.3203C93.3307 34.5703 93.1875 35.9375 93.1875 37.4219ZM139.555 25.8594V76.25H126.391V17.7344H138.656L139.555 25.8594ZM165.492 38.3594V39.1797C165.492 42.2526 165.141 45.1042 164.438 47.7344C163.734 50.3646 162.693 52.6562 161.312 54.6094C159.932 56.5625 158.214 58.0859 156.156 59.1797C154.125 60.2474 151.768 60.7812 149.086 60.7812C146.56 60.7812 144.385 60.2214 142.562 59.1016C140.74 57.9818 139.216 56.4323 137.992 54.4531C136.768 52.474 135.779 50.2083 135.023 47.6562C134.268 45.1042 133.669 42.4089 133.227 39.5703V38.5156C133.669 35.4688 134.268 32.6432 135.023 30.0391C135.779 27.4089 136.768 25.1172 137.992 23.1641C139.216 21.2109 140.727 19.6875 142.523 18.5938C144.346 17.5 146.521 16.9531 149.047 16.9531C151.729 16.9531 154.086 17.4609 156.117 18.4766C158.174 19.4922 159.893 20.9505 161.273 22.8516C162.68 24.7266 163.734 26.9792 164.438 29.6094C165.141 32.2396 165.492 35.1562 165.492 38.3594ZM152.328 39.1797V38.3594C152.328 36.7188 152.211 35.2214 151.977 33.8672C151.742 32.487 151.365 31.2891 150.844 30.2734C150.349 29.2578 149.685 28.4766 148.852 27.9297C148.018 27.3828 146.99 27.1094 145.766 27.1094C144.359 27.1094 143.174 27.3307 142.211 27.7734C141.273 28.1901 140.518 28.8411 139.945 29.7266C139.398 30.5859 139.008 31.6667 138.773 32.9688C138.565 34.2448 138.474 35.7422 138.5 37.4609V40.6641C138.448 42.6432 138.643 44.388 139.086 45.8984C139.529 47.3828 140.297 48.5417 141.391 49.375C142.484 50.2083 143.969 50.625 145.844 50.625C147.094 50.625 148.135 50.3385 148.969 49.7656C149.802 49.1667 150.466 48.3464 150.961 47.3047C151.456 46.237 151.807 45.013 152.016 43.6328C152.224 42.2526 152.328 40.7682 152.328 39.1797ZM185.258 0V60H172.055V0H185.258ZM207.289 17.7344V60H194.086V17.7344H207.289ZM193.305 6.83594C193.305 4.96094 193.982 3.42448 195.336 2.22656C196.69 1.02865 198.448 0.429688 200.609 0.429688C202.771 0.429688 204.529 1.02865 205.883 2.22656C207.237 3.42448 207.914 4.96094 207.914 6.83594C207.914 8.71094 207.237 10.2474 205.883 11.4453C204.529 12.6432 202.771 13.2422 200.609 13.2422C198.448 13.2422 196.69 12.6432 195.336 11.4453C193.982 10.2474 193.305 8.71094 193.305 6.83594ZM238.734 40.7031H224.594V30.1172H238.734C240.661 30.1172 242.224 29.7917 243.422 29.1406C244.62 28.4896 245.492 27.5911 246.039 26.4453C246.612 25.2734 246.898 23.9583 246.898 22.5C246.898 20.9375 246.612 19.4922 246.039 18.1641C245.492 16.8359 244.62 15.7682 243.422 14.9609C242.224 14.1276 240.661 13.7109 238.734 13.7109H229.75V60H216.039V3.125H238.734C243.292 3.125 247.211 3.95833 250.492 5.625C253.799 7.29167 256.339 9.58333 258.109 12.5C259.88 15.3906 260.766 18.6979 260.766 22.4219C260.766 26.0938 259.88 29.2969 258.109 32.0312C256.339 34.7656 253.799 36.901 250.492 38.4375C247.211 39.9479 243.292 40.7031 238.734 40.7031ZM285.297 15.0781L271.43 60H256.703L277.602 3.125H286.938L285.297 15.0781ZM296.781 60L282.875 15.0781L281.078 3.125H290.531L311.547 60H296.781ZM296.234 38.7891V49.375H267.055V38.7891H296.234ZM320.18 3.125L330.648 27.8125L341.156 3.125H355.922L337.641 39.5703V60H323.695V39.5703L305.375 3.125H320.18Z" fill="#454678"/>
</svg>
