<svg width="256" height="157" viewBox="0 0 256 157" fill="none" xmlns="http://www.w3.org/2000/svg">
<path d="M232.879 17.6162H31.1554C28.9038 17.6162 27.0785 19.4415 27.0785 21.6931V152.923C27.0785 155.175 28.9038 157 31.1554 157H232.879C235.13 157 236.955 155.175 236.955 152.923V21.6931C236.955 19.4415 235.13 17.6162 232.879 17.6162Z" fill="black"/>
<path d="M232.879 17.6162H31.1554C28.9049 17.6162 27.0785 19.4426 27.0785 21.6931V25.7699H236.955V21.6931C236.955 19.4426 235.129 17.6162 232.879 17.6162Z" fill="#2B2B2B"/>
<path d="M34.0377 21.693C34.0377 22.488 33.3935 23.1322 32.5986 23.1322C31.8036 23.1322 31.1594 22.488 31.1594 21.693C31.1594 20.8981 31.8036 20.2539 32.5986 20.2539C33.3935 20.2539 34.0377 20.8981 34.0377 21.693Z" fill="#2B2B2B"/>
<path d="M40.3365 21.693C40.3365 22.488 39.6924 23.1322 38.8974 23.1322C38.1024 23.1322 37.4583 22.488 37.4583 21.693C37.4583 20.8981 38.1024 20.2539 38.8974 20.2539C39.6924 20.2539 40.3365 20.8981 40.3365 21.693Z" fill="#7DA7F1"/>
<path d="M46.6393 21.693C46.6393 22.488 45.9951 23.1322 45.2001 23.1322C44.4051 23.1322 43.761 22.488 43.761 21.693C43.761 20.8981 44.4051 20.2539 45.2001 20.2539C45.9951 20.2539 46.6393 20.8981 46.6393 21.693Z" fill="#7DA7F1"/>
<path d="M228.802 73.7993H189.974V91.5459H228.802V73.7993Z" fill="#7755D6"/>
<path d="M195.751 97.7916C195.751 99.3857 194.458 100.682 192.86 100.682C191.262 100.682 189.97 99.3897 189.97 97.7916C189.97 96.1935 191.262 94.9011 192.86 94.9011C194.458 94.9011 195.751 96.1935 195.751 97.7916Z" fill="#7755D6"/>
<path d="M228.802 94.9011H198.551V97.7916H228.802V94.9011Z" fill="#7755D6"/>
<path d="M228.802 99.9363H198.551V102.827H228.802V99.9363Z" fill="#7755D6"/>
<path d="M228.802 38.9666H189.974V56.7131H228.802V38.9666Z" fill="#7755D6"/>
<path d="M195.751 62.9591C195.751 64.5532 194.458 65.8496 192.86 65.8496C191.262 65.8496 189.97 64.5572 189.97 62.9591C189.97 61.361 191.262 60.0686 192.86 60.0686C194.458 60.0686 195.751 61.361 195.751 62.9591Z" fill="#7755D6"/>
<path d="M228.802 60.0686H198.551V62.9591H228.802V60.0686Z" fill="#7755D6"/>
<path d="M228.802 65.1035H198.551V67.994H228.802V65.1035Z" fill="#7755D6"/>
<path d="M228.802 108.604H189.974V126.35H228.802V108.604Z" fill="#7755D6"/>
<path d="M192.86 135.486C194.456 135.486 195.751 134.192 195.751 132.596C195.751 130.999 194.456 129.705 192.86 129.705C191.264 129.705 189.97 130.999 189.97 132.596C189.97 134.192 191.264 135.486 192.86 135.486Z" fill="#7755D6"/>
<path d="M228.802 129.705H198.551V132.596H228.802V129.705Z" fill="#7755D6"/>
<path d="M228.802 134.74H198.551V137.631H228.802V134.74Z" fill="#7755D6"/>
<path d="M39.411 30.658H34.9957V29.863H39.411V30.658ZM39.411 31.4897H34.9957V32.2847H39.411V31.4897ZM39.411 33.1164H34.9957V33.9114H39.411V33.1164Z" fill="white"/>
<path d="M47.634 30.5437C47.5688 30.1238 47.3487 29.8792 46.9736 29.8058C46.8227 29.7773 46.6719 29.7569 46.517 29.7487C45.6853 29.7039 44.8495 29.6672 44.0138 29.6917C43.4756 29.708 42.9416 29.7202 42.4034 29.7691C41.8694 29.818 41.6003 30.0708 41.5269 30.6049C41.4127 31.461 41.4127 32.3172 41.5269 33.1733C41.584 33.6095 41.796 33.8745 42.1547 33.9561C42.273 33.9846 42.3993 34.0009 42.5217 34.0091C43.2066 34.0702 43.8915 34.0661 44.5764 34.0743C44.6946 34.0743 44.8169 34.0743 44.9352 34.0743C45.563 34.0621 46.1908 34.058 46.8187 33.9887C47.2753 33.9398 47.524 33.7237 47.6177 33.2793C47.6626 33.0632 47.683 32.8472 47.6952 32.627C47.74 31.9299 47.736 31.2286 47.63 30.5356L47.634 30.5437ZM43.9649 32.8309V30.9473C44.5112 31.2613 45.0493 31.5711 45.5997 31.8891C45.0452 32.2071 44.5112 32.5169 43.9649 32.8309Z" fill="#2B2B2B"/>
<path d="M183.491 30.4297H56.8844V33.3406H183.491V30.4297Z" fill="#7DA7F1"/>
<path d="M204.332 31.8852C204.332 33.1205 203.334 34.1194 202.098 34.1194C200.863 34.1194 199.864 33.1205 199.864 31.8852C199.864 30.65 200.863 29.6511 202.098 29.6511C203.334 29.6511 204.332 30.65 204.332 31.8852ZM209.53 29.6511C208.295 29.6511 207.296 30.65 207.296 31.8852C207.296 33.1205 208.295 34.1194 209.53 34.1194C210.766 34.1194 211.764 33.1205 211.764 31.8852C211.764 30.65 210.766 29.6511 209.53 29.6511ZM216.962 29.6511C215.727 29.6511 214.728 30.65 214.728 31.8852C214.728 33.1205 215.727 34.1194 216.962 34.1194C218.198 34.1194 219.197 33.1205 219.197 31.8852C219.197 30.65 218.198 29.6511 216.962 29.6511ZM224.395 29.6511C223.159 29.6511 222.16 30.65 222.16 31.8852C222.16 33.1205 223.159 34.1194 224.395 34.1194C225.63 34.1194 226.629 33.1205 226.629 31.8852C226.629 30.65 225.63 29.6511 224.395 29.6511Z" fill="#7DA7F1"/>
<path d="M37.8333 146.673C39.1144 146.673 40.153 145.635 40.153 144.354C40.153 143.073 39.1144 142.034 37.8333 142.034C36.5521 142.034 35.5135 143.073 35.5135 144.354C35.5135 145.635 36.5521 146.673 37.8333 146.673Z" fill="#7DA7F1"/>
<path d="M66.6975 142.034H42.4034V144.354H66.6975V142.034Z" fill="#7DA7F1"/>
<path d="M107.132 146.078H42.4034V148.398H107.132V146.078Z" fill="#7DA7F1"/>
<path d="M183.495 126.525V38.9666L35.2363 38.9666V126.525L183.495 126.525Z" fill="#7755D6"/>
<path d="M161.929 126.525H138.764L183.487 81.8022V104.967L161.925 126.529L161.929 126.525ZM103.87 126.525H111.747L183.491 54.7807V46.9042L103.87 126.525ZM35.2322 71.6875V79.564L75.8296 38.9666H67.9531L35.2322 71.6875ZM116.476 38.9666H82.1609L35.2322 85.8953V120.21L116.476 38.9666Z" fill="#2B2B2B"/>
<path d="M159.886 90.3718C159.886 90.3718 168.717 108.53 170.882 115.22C173.047 121.906 153.233 94.1552 153.233 94.1552L159.886 90.3718Z" fill="#FFDDF1"/>
<path d="M71.3696 92.2432L43.0314 67.1338L35.3954 77.1588C35.3954 77.1588 59.0249 117.985 68.7074 118.074C76.0866 118.144 89.316 106.924 89.316 106.924L71.3696 92.2432Z" fill="#FFDDF1"/>
<path d="M91.2279 78.867C85.7038 72.185 83.7102 62.743 86.0585 54.3976C88.4067 46.0523 95.2966 39.2643 103.491 36.4431C101.82 27.686 105.057 18.1584 111.71 12.2266C121.523 3.48577 138.303 3.75077 148.353 12.088C153.253 16.1526 156.323 22.696 155.247 28.9702C163.295 35.0325 168.484 44.764 168.33 54.8379C168.175 64.9119 162.964 74.782 154.733 80.5956L91.2238 78.8711L91.2279 78.867Z" fill="#7DA7F1"/>
<path d="M165.786 92.4387C165.786 92.4387 153.233 68.9682 144.215 64.1126C139.054 61.3322 121.181 59.7178 121.181 59.7178C121.181 59.7178 105.02 60.313 103.002 61.0958C99.2716 62.5512 71.3655 92.243 71.3655 92.243L89.3118 109.953L95.3211 104.531C96.4096 106.74 96.6787 106.585 96.7969 107.951C97.0334 110.646 95.8511 127.593 95.8511 127.593H152.038L145.071 101.632L165.782 92.4428L165.786 92.4387Z" fill="white"/>
<path d="M94.7381 103.316C94.5914 103.316 94.4487 103.251 94.3508 103.124C92.0841 100.193 91.1749 96.9396 91.6519 93.4662C92.2879 88.8348 95.3089 84.6234 97.7346 81.9083C100.344 78.9811 102.77 77.1669 102.871 77.0894C103.088 76.9304 103.393 76.9712 103.556 77.1913C103.719 77.4074 103.675 77.7132 103.454 77.8762C103.357 77.9496 93.7719 85.182 92.6182 93.6048C92.1779 96.8092 93.0218 99.8138 95.1214 102.529C95.2885 102.741 95.2477 103.051 95.0317 103.214C94.942 103.283 94.836 103.316 94.734 103.316H94.7381Z" fill="#7DA7F1"/>
<path d="M136.184 62.2699L142.217 43.2595C142.217 43.2595 150.289 47.2671 151.855 40.4505C153.249 34.376 146.616 33.0347 143.02 35.5053C143.02 35.5053 151.61 14.7785 133.244 10.6446C114.878 6.51065 111.376 31.9503 110.499 38.1023C108.958 48.9386 116.068 55.1639 121.625 56.4359L120.325 63.0323C120.325 63.0323 119.118 68.797 124.56 69.7306C127.382 70.2157 129.669 69.5023 131.41 68.4464C133.705 67.0561 135.368 64.822 136.179 62.2658L136.184 62.2699Z" fill="#FFDDF1"/>
<path d="M117.613 27.5678C116.329 25.9778 121.666 25.3255 121.723 26.357C121.78 27.3844 118.372 28.5055 117.613 27.5678Z" fill="#FFDDF1"/>
<path d="M131.793 34.1805C131.805 35.2935 130.912 36.2067 129.799 36.2189C128.686 36.2311 127.773 35.3383 127.761 34.2253C127.749 33.1123 128.641 32.1991 129.754 32.1869C130.867 32.1747 131.781 33.0675 131.793 34.1805Z" fill="#FFDDF1"/>
<path d="M121.98 32.7901C121.992 33.9031 121.099 34.8163 119.986 34.8285C118.873 34.8408 117.96 33.9479 117.948 32.8349C117.935 31.722 118.828 30.8087 119.941 30.7965C121.054 30.7843 121.967 31.6771 121.98 32.7901Z" fill="#FFDDF1"/>
<path d="M144.003 40.5281C143.97 40.5281 143.938 40.5281 143.905 40.5159C143.656 40.4629 143.497 40.2142 143.55 39.9655C143.815 38.7506 144.692 37.6988 145.833 37.2137C146.979 36.7285 148.341 36.8345 149.401 37.4868C149.617 37.6213 149.686 37.9067 149.552 38.1228C149.417 38.3389 149.132 38.4041 148.916 38.2736C148.108 37.7722 147.069 37.6947 146.196 38.0657C145.324 38.4367 144.659 39.2399 144.455 40.1653C144.407 40.3814 144.215 40.5281 144.003 40.5281Z" fill="#FFDDF1"/>
<path d="M121.629 56.4401C128.234 57.5898 132.877 55.0825 132.877 55.0825C132.877 55.0825 129.958 58.238 121.442 57.6346L121.629 56.4401Z" fill="#7DA7F1"/>
<path d="M130.737 39.3458C130.875 40.149 131.634 40.6871 132.437 40.5485C133.24 40.4099 133.778 39.6516 133.64 38.8485C133.501 38.0453 132.743 37.5072 131.94 37.6458C131.136 37.7844 130.598 38.5427 130.737 39.3458Z" fill="#2B2B2B"/>
<path d="M113.113 38.2777C113.251 39.0809 114.009 39.619 114.813 39.4804C115.616 39.3418 116.154 38.5835 116.015 37.7803C115.877 36.9772 115.118 36.4391 114.315 36.5777C113.512 36.7163 112.974 37.4746 113.113 38.2777Z" fill="#2B2B2B"/>
<path d="M43.3982 67.9042C43.3982 67.9042 41.9632 64.9117 40.6341 61.8785C39.3051 58.8454 37.3319 50.9566 35.4973 50.9362C33.6627 50.9159 35.534 60.5699 35.534 60.5699C35.534 60.5699 22.2067 49.6724 20.4088 50.6549C18.2766 51.8209 27.2579 59.1104 27.2579 59.1104C27.2579 59.1104 16.2382 53.1214 14.954 54.267C13.6697 55.4126 24.0739 61.7889 24.0739 61.7889C24.0739 61.7889 12.0145 57.0352 10.9056 58.1523C9.79672 59.2653 20.8858 64.7731 20.8858 64.7731C20.8858 64.7731 10.8608 60.8879 10.0739 62.3392C9.28711 63.7906 35.4035 77.1505 35.4035 77.1505L43.4064 67.896L43.3982 67.9042Z" fill="#FFDDF1"/>
<path d="M36.5123 70.2932C36.4104 70.2932 36.3044 70.2605 36.2188 70.1953C33.4873 68.1406 29.7651 67.5005 26.4996 68.5238C26.2427 68.6053 25.9655 68.4626 25.888 68.2017C25.8065 67.9449 25.9492 67.6677 26.2101 67.5902C29.1699 66.6607 32.4844 66.9909 35.2281 68.4178C34.7144 67.2885 34.2823 66.0165 34.001 64.7772C33.9398 64.5122 34.107 64.2512 34.3679 64.1901C34.6329 64.133 34.8938 64.2961 34.955 64.557C35.3545 66.3182 36.1128 68.2303 36.9282 69.5389C37.0546 69.7387 37.0179 69.9996 36.8426 70.1586C36.7488 70.2442 36.6306 70.2891 36.5123 70.2891V70.2932Z" fill="#7DA7F1"/>
<path d="M170.364 114.486C167.934 110.569 152.214 90.168 152.214 90.168C152.214 90.168 154.15 88.7411 153.914 86.7434C153.677 84.7457 152.043 85.1045 152.043 85.1045C152.043 85.1045 154.264 81.5862 152.988 80.3509C152.352 79.7312 150.673 80.1429 149.156 80.7056C151.672 77.1791 156.356 70.2932 154.998 69.7184C153.164 68.9438 142.193 80.1226 142.193 80.1226C142.193 80.1226 137.492 77.9537 136.257 78.0107C135.018 78.0678 132.453 81.1173 132.09 86.6292C131.728 92.1371 134.545 92.5488 135.47 94.8604C136.396 97.172 138.316 104.221 145.104 118.058C151.892 131.895 159.54 135.764 165.965 132.127C172.39 128.49 172.79 118.408 170.36 114.491L170.364 114.486Z" fill="#FFDDF1"/>
<path d="M166.324 109.521C166.173 109.521 166.026 109.452 165.928 109.321L157.701 98.1872C157.542 97.9712 157.587 97.6654 157.803 97.5023C158.019 97.3392 158.329 97.3882 158.488 97.6042L166.715 108.738C166.874 108.954 166.829 109.26 166.613 109.423C166.528 109.488 166.426 109.521 166.324 109.521Z" fill="#7DA7F1"/>
<path d="M141.704 93.1154C141.1 93.1154 140.582 93.0298 140.224 92.8178C139.902 92.6262 139.702 92.3368 139.645 91.9862C139.575 91.5459 139.73 90.0863 143.697 87.7299C141.496 88.0031 138.96 88.052 138.401 86.9716C138.316 86.8085 138.242 86.5395 138.369 86.1929C139.025 84.4276 145.784 81.6554 147.134 81.1172C147.383 81.0153 147.668 81.1376 147.77 81.3904C147.872 81.6431 147.75 81.9244 147.497 82.0264C143.114 83.7753 139.351 85.8505 139.282 86.5598C139.592 87.1388 142.959 87.0205 146.482 86.2663C146.722 86.2174 146.967 86.3519 147.044 86.5843C147.126 86.8167 147.02 87.0735 146.796 87.1836C143.705 88.688 140.464 90.8895 140.615 91.8272C140.623 91.872 140.635 91.9209 140.729 91.9739C141.593 92.4958 145.01 91.6926 147.154 90.9547C147.411 90.865 147.688 91.0036 147.774 91.2605C147.86 91.5173 147.725 91.7945 147.468 91.8801C146.747 92.1288 143.746 93.1114 141.699 93.1114L141.704 93.1154Z" fill="#7DA7F1"/>
<path d="M124.014 39.2112C123.924 39.2112 123.839 39.1867 123.757 39.1378C123.586 39.0318 122.061 38.0533 121.902 36.7569C121.76 35.5746 123.464 31.9666 123.806 31.2531C123.924 31.0085 124.218 30.9066 124.458 31.0248C124.703 31.1431 124.805 31.4366 124.687 31.6771C123.884 33.3405 122.791 35.9741 122.873 36.6346C122.958 37.3399 123.912 38.0778 124.271 38.302C124.499 38.4447 124.569 38.7464 124.43 38.9747C124.336 39.1255 124.177 39.2071 124.014 39.2071V39.2112Z" fill="#FFDDF1"/>
<path d="M127.08 38.5671C125.881 40.5566 123.517 41.7797 121.201 41.6085C122.371 43.1944 125.103 43.9364 126.705 42.7867C128.307 41.637 128.209 40.1857 127.084 38.5671H127.08Z" fill="white"/>
<path d="M108.021 36.17C108.021 36.17 105.672 14.0204 121.837 7.67271C129.705 4.58244 144.977 6.76764 150.44 15.1415C155.903 23.5195 151.606 35.1711 151.606 35.1711C151.606 35.1711 147.929 34.4251 145.377 36.1822C142.825 37.9393 139.372 42.8234 137.337 43.227C135.303 43.6306 139.217 34.6778 139.217 34.6778C139.217 34.6778 126.057 32.3214 118.836 19.7688C118.836 19.7688 109.602 25.2603 108.029 36.17H108.021Z" fill="#7DA7F1"/>
<path d="M183.491 126.525H35.2322V137.631H183.491V126.525Z" fill="#2B2B2B"/>
<path d="M179.455 130.284H138.87C138.556 130.284 138.299 130.028 138.299 129.714C138.299 129.4 138.556 129.143 138.87 129.143H179.455C179.769 129.143 180.026 129.4 180.026 129.714C180.026 130.028 179.769 130.284 179.455 130.284Z" fill="#FFDDF1"/>
<path d="M138.87 130.284H39.4763C39.1624 130.284 38.9055 130.028 38.9055 129.714C38.9055 129.4 39.1624 129.143 39.4763 129.143H138.87C139.184 129.143 139.441 129.4 139.441 129.714C139.441 130.028 139.184 130.284 138.87 130.284Z" fill="#7DA7F1"/>
<path d="M140.085 129.713C140.085 130.382 139.543 130.928 138.87 130.928C138.198 130.928 137.655 130.386 137.655 129.713C137.655 129.041 138.198 128.499 138.87 128.499C139.543 128.499 140.085 129.041 140.085 129.713Z" fill="white"/>
<path d="M46.3906 132.918H47.1652V135.572H46.3906V132.918ZM44.8985 135.572H45.6731V132.918H44.8985V135.572ZM52.2735 132.918V133.99L50.6387 132.918V135.572L52.2735 134.5V135.572H53.0481V132.918H52.2735ZM39.0197 132.918V135.572H39.7943V134.5L41.4291 135.572V132.918L39.7943 133.99V132.918H39.0197Z" fill="white"/>
<path d="M174.139 134.247C174.139 134.981 173.544 135.572 172.814 135.572C172.084 135.572 171.489 134.977 171.489 134.247C171.489 133.517 172.084 132.922 172.814 132.922C173.544 132.922 174.139 133.517 174.139 134.247Z" fill="white"/>
<path d="M176.708 133.901V133.391H177.674V132.922H176.239V133.901H176.708Z" fill="white"/>
<path d="M178.448 133.391H179.415V133.901H179.883V132.922H178.448V133.391Z" fill="white"/>
<path d="M177.674 135.185H176.707V134.675H176.239V135.653H177.674V135.185Z" fill="white"/>
<path d="M179.415 134.675V135.185H178.448V135.653H179.883V134.675H179.415Z" fill="white"/>
<path d="M240.69 141.838C243.238 139.873 246.907 140.35 248.872 142.898C250.833 145.446 250.356 149.115 247.812 151.08L246.454 149.315C248.028 148.1 248.326 145.834 247.111 144.256C245.896 142.678 243.625 142.385 242.051 143.599L240.694 141.834L240.69 141.838Z" fill="#7DA7F1"/>
<path d="M75.9844 13.682C75.3076 10.5387 77.3175 7.42807 80.4649 6.75131C83.6081 6.07455 86.7188 8.08852 87.3915 11.2318L85.2144 11.7006C84.7986 9.75596 82.8743 8.51252 80.9296 8.92836C78.985 9.3442 77.7415 11.2685 78.1574 13.2131L75.9803 13.682H75.9844Z" fill="#7DA7F1"/>
<path d="M247.335 43.4839C244.742 43.4839 242.63 41.372 242.63 38.7792C242.63 36.1863 244.742 34.0745 247.335 34.0745C249.928 34.0745 252.04 36.1863 252.04 38.7792C252.04 41.372 249.928 43.4839 247.335 43.4839ZM247.335 35.9335C245.765 35.9335 244.485 37.2096 244.485 38.7832C244.485 40.3569 245.761 41.633 247.335 41.633C248.909 41.633 250.185 40.3569 250.185 38.7832C250.185 37.2096 248.909 35.9335 247.335 35.9335Z" fill="#7DA7F1"/>
<path d="M14.3179 139.673L10.2491 128.825L21.6807 130.725L14.3219 139.673H14.3179ZM13.1152 131.181L14.9294 136.012L18.2072 132.025L13.1152 131.177V131.181Z" fill="#2B2B2B"/>
<path d="M206.004 10.6774L204.414 11.6314L203.346 9.86201L200.838 11.5988L199.261 8.9814L196.745 10.7181L194.658 7.25689L196.248 6.29883L197.316 8.07226L199.831 6.33552L201.405 8.94879L203.916 7.21205L206.004 10.6774Z" fill="#2B2B2B"/>
<path d="M54.3281 10.3797L52.4731 10.2655L52.6036 8.20261L49.55 8.20668L49.7416 5.15719H46.684L46.9367 1.12109L48.7876 1.23525L48.6572 3.30222H51.7148L51.5273 6.34763H54.5808L54.3281 10.3797Z" fill="#7DA7F1"/>
<path d="M15.4797 20.8775L9.53564 14.9131L15.5001 8.96899L21.4442 14.9334L15.4797 20.8775ZM12.1571 14.9171L15.4838 18.2561L18.8227 14.9294L15.496 11.5904L12.1571 14.9171Z" fill="#2B2B2B"/>
<path d="M237.432 86.833C247.204 86.833 255.126 78.9113 255.126 69.1394C255.126 59.3675 247.204 51.4458 237.432 51.4458C227.661 51.4458 219.739 59.3675 219.739 69.1394C219.739 78.9113 227.661 86.833 237.432 86.833Z" fill="#7DA7F1"/>
<path d="M240.327 76.2495L237.437 78.1208L234.546 76.2495C227.318 71.5775 227.318 68.2385 227.318 66.9828C227.318 64.0434 229.699 61.6584 232.642 61.6584C234.75 61.6584 236.568 62.8815 237.437 64.659C238.301 62.8815 240.119 61.6584 242.227 61.6584C245.17 61.6584 247.551 64.0434 247.551 66.9828C247.551 68.2385 247.551 71.5734 240.327 76.2495Z" fill="white"/>
<path d="M66.0819 21.5667H79.1238C85.8792 21.5667 91.3544 27.0419 91.3544 33.7972V34.4128C91.3544 41.1682 85.8792 46.6434 79.1238 46.6434H76.2374V50.3004L70.6072 46.6434H66.0819C59.3265 46.6434 53.8513 41.1682 53.8513 34.4128V33.7972C53.8513 27.0419 59.3265 21.5667 66.0819 21.5667Z" fill="white"/>
<path d="M66.779 34.1029C66.779 35.803 65.401 37.181 63.701 37.181C62.0009 37.181 60.6229 35.803 60.6229 34.1029C60.6229 32.4029 62.0009 31.0249 63.701 31.0249C65.401 31.0249 66.779 32.4029 66.779 34.1029ZM72.6048 31.0249C70.9048 31.0249 69.5268 32.4029 69.5268 34.1029C69.5268 35.803 70.9048 37.181 72.6048 37.181C74.3049 37.181 75.6829 35.803 75.6829 34.1029C75.6829 32.4029 74.3049 31.0249 72.6048 31.0249ZM81.5087 31.0249C79.8086 31.0249 78.4307 32.4029 78.4307 34.1029C78.4307 35.803 79.8086 37.181 81.5087 37.181C83.2087 37.181 84.5867 35.803 84.5867 34.1029C84.5867 32.4029 83.2087 31.0249 81.5087 31.0249Z" fill="#2B2B2B"/>
<path d="M181.184 17.6162H164.037C165.455 20.9511 168.758 23.2871 172.61 23.2871C176.463 23.2871 179.765 20.9511 181.184 17.6162Z" fill="#7DA7F1"/>
<path d="M179.788 19.7615C183.426 16.1235 183.426 10.2251 179.788 6.58717C176.15 2.94919 170.252 2.94919 166.614 6.58717C162.976 10.2251 162.976 16.1235 166.614 19.7615C170.252 23.3994 176.15 23.3994 179.788 19.7615Z" fill="#2B2B2B"/>
<path d="M170.882 16.6336C170.955 16.4909 171.057 16.3727 171.196 16.2789C171.334 16.1851 171.497 16.124 171.693 16.0954C171.889 16.071 172.105 16.0914 172.349 16.1566C172.553 16.2096 172.724 16.2871 172.851 16.3931C172.981 16.495 173.075 16.6091 173.136 16.7314C173.197 16.8537 173.23 16.976 173.234 17.0983C173.234 17.2207 173.226 17.3267 173.193 17.4204C173.169 17.4897 173.128 17.5713 173.063 17.665C172.998 17.7588 172.916 17.8485 172.822 17.93C172.729 18.0116 172.614 18.0768 172.48 18.1339C172.345 18.1909 172.194 18.2195 172.027 18.2195C171.669 18.2276 171.363 18.1298 171.114 17.9341C170.861 17.7343 170.743 17.453 170.759 17.0902C170.768 16.9312 170.808 16.7804 170.878 16.6377L170.882 16.6336ZM175.431 8.36978C175.48 8.51247 175.472 8.6837 175.403 8.89162C175.203 9.46238 175.008 10.0413 174.816 10.6284C174.62 11.2154 174.437 11.7943 174.257 12.3651C174.078 12.9359 173.915 13.4862 173.764 14.0162C173.613 14.5462 173.483 15.0395 173.369 15.4961C173.332 15.6551 173.271 15.7571 173.193 15.7938C173.112 15.8304 172.985 15.8264 172.81 15.7815C172.598 15.7448 172.402 15.6959 172.223 15.6388C172.044 15.5818 171.868 15.5124 171.701 15.4268C171.526 15.3371 171.412 15.2352 171.351 15.1251C171.293 15.0151 171.285 14.8479 171.322 14.6278C171.383 14.1875 171.469 13.6656 171.579 13.0663C171.689 12.467 171.811 11.8514 171.95 11.2195C172.088 10.5876 172.227 9.96384 172.374 9.34415C172.521 8.72855 172.655 8.17409 172.786 7.68487C172.847 7.44841 172.936 7.30572 173.055 7.24865C173.173 7.19565 173.352 7.21195 173.597 7.29349C173.825 7.35464 174.074 7.44026 174.347 7.55441C174.616 7.66856 174.853 7.79495 175.048 7.93356C175.252 8.08033 175.383 8.22302 175.431 8.36163V8.36978Z" fill="white"/>
<path d="M15.488 111.025C24.0418 111.025 30.976 104.091 30.976 95.5373C30.976 86.9835 24.0418 80.0493 15.488 80.0493C6.93422 80.0493 0 86.9835 0 95.5373C0 104.091 6.93422 111.025 15.488 111.025Z" fill="#7DA7F1"/>
<path d="M15.6633 86.9268C15.8549 86.2827 16.0343 85.7445 16.1974 85.3205C16.4583 84.7294 16.8823 84.6397 17.4734 85.0514C17.9423 85.3694 18.2929 85.7567 18.5334 86.2256C18.7739 86.6944 18.8188 87.2489 18.6679 87.893C18.5986 88.1662 18.5252 88.4719 18.4519 88.7981C18.3744 89.1283 18.2888 89.4504 18.195 89.7684C18.4845 89.9314 18.7984 90.1597 19.1449 90.4492C19.5852 90.8487 19.8502 91.232 19.9399 91.603C20.0296 91.974 20.0663 92.3164 20.0541 92.6344C20.0418 92.8831 20.0092 93.1644 19.9603 93.4783C19.9114 93.7963 19.8543 94.1102 19.785 94.4241C19.7157 94.7421 19.6341 95.0398 19.5363 95.3211C19.4385 95.6024 19.3447 95.847 19.2468 96.0549C19.0145 96.4137 18.6924 96.5156 18.2766 96.3647C17.9871 96.2547 17.7221 96.1283 17.4816 95.9815C17.241 95.8388 17.0331 95.6757 16.8619 95.4964C16.6907 95.317 16.5643 95.1131 16.4827 94.8889C16.4012 94.6606 16.3727 94.4038 16.4012 94.1184C16.4542 93.8289 16.5153 93.4905 16.5765 93.0992C16.6377 92.7078 16.6417 92.3694 16.5887 92.08C16.5887 91.9128 16.5398 91.8068 16.446 91.7497C16.3074 91.6967 16.1321 91.7212 15.9201 91.8313C15.7081 91.9413 15.4921 92.0963 15.2719 92.296C15.0518 92.4958 14.8479 92.7363 14.6645 93.0176C14.481 93.2989 14.3465 93.5965 14.2608 93.9023C14.1793 94.2122 14.1671 94.5261 14.2282 94.84C14.2894 95.158 14.4647 95.4434 14.7541 95.7043C15.2352 96.1038 15.7652 96.4667 16.3523 96.7969C16.9353 97.1271 17.4612 97.4655 17.93 97.8161C18.3989 98.1667 18.7454 98.5459 18.9819 98.9495C19.2142 99.3531 19.2305 99.8341 19.0226 100.38C18.9003 100.601 18.7413 100.841 18.5497 101.102C18.3581 101.363 18.1135 101.604 17.8199 101.824C17.5223 102.044 17.1717 102.227 16.76 102.37C16.3482 102.513 15.859 102.586 15.2964 102.586H15.0273C14.8765 102.586 14.7949 102.578 14.7786 102.566C14.6563 103.006 14.5381 103.463 14.428 103.935C14.3179 104.408 14.2282 104.824 14.1589 105.183C14.1018 105.415 14.0122 105.55 13.8817 105.587C13.7512 105.619 13.5474 105.57 13.2742 105.432C12.7932 105.199 12.4629 104.849 12.2836 104.38C12.1042 103.915 12.0308 103.43 12.0553 102.937C12.0675 102.745 12.0838 102.57 12.096 102.411C12.1083 102.252 12.145 102.093 12.198 101.926C11.827 101.746 11.4641 101.546 11.1054 101.326C10.7466 101.106 10.4041 100.825 10.0739 100.482C9.6336 100.042 9.41345 99.7322 9.41345 99.5569C9.40122 99.3531 9.49091 99.1778 9.68253 99.0432C9.8456 98.9454 10.0372 98.8761 10.2492 98.8353C10.4612 98.7945 10.6732 98.7823 10.8893 98.7945C11.1013 98.8068 11.3133 98.8516 11.5171 98.9169C11.725 98.9862 11.9085 99.0758 12.0716 99.1859C12.4956 99.4183 12.9073 99.614 13.3069 99.773C13.7064 99.932 14.0733 100.046 14.4076 100.111C14.746 100.181 15.0314 100.209 15.2719 100.193C15.5124 100.181 15.6959 100.115 15.8182 100.005C15.9813 99.8668 15.9527 99.7078 15.7244 99.5202C15.4961 99.3368 15.17 99.1248 14.746 98.8924C14.322 98.66 13.8491 98.3991 13.3354 98.1096C12.8217 97.8202 12.3488 97.5103 11.9248 97.1842C11.3337 96.7317 10.8852 96.1813 10.5754 95.5371C10.2655 94.893 10.2084 94.1551 10.4001 93.3315C10.661 92.5896 11.0646 91.8394 11.615 91.077C12.1653 90.3147 12.8503 89.695 13.6738 89.2139C13.8654 89.1038 14.0774 89.0141 14.3138 88.9448C14.5462 88.8755 14.8031 88.8348 15.0762 88.8225C15.2678 88.2029 15.4594 87.5709 15.6551 86.9268H15.6633Z" fill="white"/>
<path d="M246.018 105.244C249.004 105.244 251.424 102.824 251.424 99.8383C251.424 96.8527 249.004 94.4324 246.018 94.4324C243.033 94.4324 240.612 96.8527 240.612 99.8383C240.612 102.824 243.033 105.244 246.018 105.244Z" fill="#2B2B2B"/>
<path d="M246.018 97.0251L246.842 98.6926L248.689 98.9617L247.351 100.262L247.669 102.097L246.018 101.232L244.371 102.097L244.685 100.262L243.352 98.9617L245.195 98.6926L246.018 97.0251Z" fill="white"/>
</svg>
