<svg width="97" height="96" viewBox="0 0 97 96" fill="none" xmlns="http://www.w3.org/2000/svg">
<g clip-path="url(#clip0_51_7921)">
<circle opacity="0.12" cx="48.5" cy="48.0001" r="48" fill="#F4B91D"/>
<path fill-rule="evenodd" clip-rule="evenodd" d="M48.5 30.0001C46.8431 30.0001 45.5 31.3433 45.5 33.0001V55.0001C45.5 56.657 46.8431 58.0001 48.5 58.0001C50.1569 58.0001 51.5 56.657 51.5 55.0001V33.0001C51.5 31.3433 50.1569 30.0001 48.5 30.0001ZM48.5 66.0001C46.8431 66.0001 45.5 64.657 45.5 63.0001C45.5 61.3433 46.8431 60.0001 48.5 60.0001C50.1569 60.0001 51.5 61.3433 51.5 63.0001C51.5 64.657 50.1569 66.0001 48.5 66.0001Z" fill="#F4B91D"/>
</g>
<defs>
<clipPath id="clip0_51_7921">
<rect width="96" height="96" fill="white" transform="translate(0.5 0.00012207)"/>
</clipPath>
</defs>
</svg>
